<svg xmlns="http://www.w3.org/2000/svg" version="1.1" xmlns:xlink="http://www.w3.org/1999/xlink" xmlns:svgjs="http://svgjs.dev/svgjs" width="1440" height="560" preserveAspectRatio="none" viewBox="0 0 1440 560">
    <g mask="url(&quot;#SvgjsMask1061&quot;)" fill="none">
        <rect width="1440" height="560" x="0" y="0" fill="rgba(49, 44, 44, 1)"></rect>
        <path d="M0,393.255C80.407,391.567,165.117,405.525,234.722,365.235C305.528,324.249,342.211,246.118,379.763,173.432C419.034,97.419,464.971,19.459,457.391,-65.763C449.655,-152.744,410.441,-243.952,338.269,-293.112C268.853,-340.395,175.46,-302.479,92.325,-314.43C24.436,-324.189,-38.257,-373.553,-104.766,-356.799C-171.911,-339.885,-213.355,-276.448,-260.348,-225.593C-308.906,-173.045,-365.05,-124.265,-383.517,-55.141C-403.071,18.049,-388.966,94.845,-365.172,166.768C-339.252,245.118,-311.275,331.728,-241.143,375.225C-171.228,418.588,-82.253,394.982,0,393.255" fill="#282424"></path>
        <path d="M1440 860.7280000000001C1517.5430000000001 875.841 1596.316 948.745 1666.407 912.296 1734.875 876.691 1723.211 773.729 1747.899 700.613 1769.723 635.978 1803.23 576.031 1802.982 507.811 1802.708 432.725 1801.1779999999999 345.86199999999997 1746.42 294.486 1691.8029999999999 243.24200000000002 1604.919 259.702 1530.415 252.075 1469.392 245.82799999999997 1411.127 247.46800000000002 1350.125 253.914 1275.448 261.805 1187.433 242.236 1133.09 294.061 1078.8310000000001 345.807 1089.426 433.968 1082.993 508.67 1076.905 579.367 1062.1770000000001 654.784 1096.687 716.7860000000001 1130.476 777.492 1199.924 807.004 1263.996 833.8679999999999 1319.859 857.29 1380.545 849.1410000000001 1440 860.7280000000001" fill="#3a3434"></path>
    </g>
    <defs>
        <mask id="SvgjsMask1061">
            <rect width="1440" height="560" fill="#ffffff"></rect>
        </mask>
    </defs>
</svg>